<svg width="80" height="80" viewBox="0 0 80 80" fill="none" xmlns="http://www.w3.org/2000/svg">
<g id="Frame" clip-path="url(#clip0_176_903)">
<path id="Vector" d="M0 40C0 21.1438 0 11.7157 5.85786 5.85786C11.7157 0 21.1438 0 40 0C58.8562 0 68.2843 0 74.1421 5.85786C80 11.7157 80 21.1438 80 40C80 58.8562 80 68.2843 74.1421 74.1421C68.2843 80 58.8562 80 40 80C21.1438 80 11.7157 80 5.85786 74.1421C0 68.2843 0 58.8562 0 40Z" fill="#FB398A"/>
<path id="Vector_2" fill-rule="evenodd" clip-rule="evenodd" d="M40.5 28C33.5958 28 28 33.5969 28 40.5C28 47.4031 33.5958 53 40.5 53C47.4042 53 53 47.4031 53 40.5C53 33.5969 47.4042 28 40.5 28ZM50.7969 39.9177C48.1146 39.4781 45.6479 39.4542 43.3979 39.8417C43.1437 39.2552 42.8802 38.6698 42.599 38.0917C45.0052 37.05 46.9375 35.6354 48.3781 33.8396C49.7844 35.5 50.6667 37.6094 50.7969 39.9177ZM41.601 36.1656C43.8073 35.2313 45.5396 33.951 46.7948 32.3323C45.05 30.9854 42.8698 30.174 40.5 30.174C39.625 30.174 38.7792 30.2958 37.9677 30.501C39.3323 32.3365 40.5427 34.2271 41.601 36.1656ZM35.8406 31.2979C37.2271 33.1125 38.4563 34.9833 39.525 36.9031C36.9938 37.6479 33.9719 38.0302 30.4792 38.0542C31.2 35.101 33.1885 32.6448 35.8406 31.2979ZM30.1875 40.2333L30.174 40.5C30.174 43.0073 31.074 45.3073 32.5656 47.0979C34.8281 43.7042 37.7292 41.449 41.25 40.3479C41.0271 39.8479 40.7948 39.351 40.5521 38.8562C37.6552 39.7667 34.1969 40.2281 30.1875 40.2333ZM34.1625 48.6354C36.2135 45.4187 38.8312 43.325 42.0771 42.3573C43.0437 44.8781 43.7531 47.4719 44.2052 50.1281C40.7167 51.4729 36.9625 50.8219 34.1625 48.6354ZM44.2313 41.899C45.1063 44.2365 45.775 46.6323 46.2313 49.0833C48.576 47.5115 50.2333 45.0052 50.6885 42.1031C48.3354 41.6948 46.1854 41.6229 44.2313 41.899Z" fill="white"/>
</g>
<defs>
<clipPath id="clip0_176_903">
<rect width="80" height="80" fill="white"/>
</clipPath>
</defs>
</svg>
